<svg viewBox="-360.4851 -287.60007 7930.671 6327.2" xmlns="http://www.w3.org/2000/svg"
    xmlns:xlink="http://www.w3.org/1999/xlink">
    <g id="container_0">
        <path d="M0,0 L7209.7007,0 L7209.7007,5752 L0,5752 z" fill="#CC824A" stroke="black" stroke-width="25.308802" />
        <path d="M7209.7,5752 L0,5752 L0,0 L7209.7,0 z" fill="none" stroke="black"
            stroke-dasharray="12.654401 25.308802" stroke-linecap="round" stroke-linejoin="round" stroke-opacity="0.3"
            stroke-width="6.3272004" />
        <title>container, id: 0, bbox: [x_min: 0.000, y_min: 0.000, x_max: 7209.701, y_max: 5752.000]</title>
    </g>
    <g id="items">
        <defs>
            <g id="item_0">
                <path
                    d="M0,0 L-5,-321 L1,-642 L151,-660 L259,-691 L423,-738 L547,-770 L680,-801 L858,-837 L988,-682 L1075,-620 L1211,-553 L1319,-527 L1481,-526 L1597,-540 L1737,-564 L1719,-440 L1708,-317 L1718,-194 L1736,-70 L1596,-95 L1480,-109 L1318,-109 L1210,-83 L1074,-17 L986,45 L856,199 L678,162 L545,131 L421,98 L257,50 L149,19 z"
                    fill="#FFC879" fill-opacity="0.5" fill-rule="nonzero" stroke="black" stroke-width="12.654401" />
            </g>
            <g id="item_1">
                <path
                    d="M0,0 L8,-148 L26.962263,-299.69812 L68.443474,-462.4321 L179,-449 L288,-446 L401,-463 L548,-497 L764.0157,-545.56165 L805,-350 L887,-196 L755,-176 L655,-155 L523,-121 L272,-52 L117.45331,-11.877301 z"
                    fill="#FFC879" fill-opacity="0.5" fill-rule="nonzero" stroke="black" stroke-width="12.654401" />
            </g>
            <g id="item_2">
                <path
                    d="M-159,-185 L-328,-228 L-474,-262 L-694.8461,-307.57144 L-806.64514,-359.47812 L-532,-384 L-408,-400 L-215,-443 L-77,-501 L130,-620 L264,-589 L477.87183,-543.8493 L652.5122,-485.0418 L766,-431 L893,-362 L1115,-258 L1125,-131 L1133,-7 L940,23 L792,45 L680,59 L524,70 L357.5263,70 L181,44 L0.952833,4.181876 z"
                    fill="#FFC879" fill-opacity="0.5" fill-rule="nonzero" stroke="black" stroke-width="12.654401" />
            </g>
            <g id="item_3">
                <path
                    d="M0,0 L8,-172 L309,-166 L484,-165 L616,-167 L718,-172 L876,-194 L1031,-248 L1351.455,-111.0968 L1209,-57 L1048.9706,-6.821297 L909,16 L785,26 L668,29 L511,26 L213,14 z"
                    fill="#FFC879" fill-opacity="0.5" fill-rule="nonzero" stroke="black" stroke-width="12.654401" />
            </g>
            <g id="item_4">
                <path
                    d="M0,0 L33.96,-142.915 L77,-268 L89,-388 L-826,-439 L-824,-598 L39,-607 L169,-650 L209,-800 L251,-940 L371,-924 L354,-726 L348,-610 L350,-412 L360,-264 L382,-94 L488.69122,232.11281 L352,54 L217,0 z"
                    fill="#FFC879" fill-opacity="0.5" fill-rule="nonzero" stroke="black" stroke-width="12.654401" />
            </g>
            <g id="item_5">
                <path
                    d="M0,-7.222222 L129.8,-36.066666 L306.8846,22.961538 L495,110 L616,172 L737,238 L855,290 L959,313 L1071,306 L1275,255 L1260,394 L1250,499 L1260,606 L1275,745 L1071,694 L959,687 L855,710 L737,762 L616,828 L495,890 L306.8846,977.03845 L129.8,1036.0667 L0,1007.2222 z"
                    fill="#FFC879" fill-opacity="0.5" fill-rule="nonzero" stroke="black" stroke-width="12.654401" />
            </g>
            <g id="item_6">
                <path
                    d="M0,0 L-4,-123 L-8,-291 L-17,-454 L-40,-620 L119,-619 L246,-538 L352,-501 L492,-458 L647,-416 L766,-369 L913,-302 L1061,-224 L1046,-100 L1037,2 L1061,224 L913,302 L766,369 L647,416 L492,458 L352,501 L246,538 L119,619 L-40,620 L-17,454 L-8,291 L-4,123 z"
                    fill="#FFC879" fill-opacity="0.5" fill-rule="nonzero" stroke="black" stroke-width="12.654401" />
            </g>
            <g id="item_7">
                <path
                    d="M-76,-85 L-178,-200 L-270,-306 L-412,-374 L-958,-383 L-954,-543 L-366,-560 L-269,-659 L-90,-708 L-4,-539 L40,-443 L94,-312 L140.2381,-190.31746 L189,-42 L4.52434,5.060117 z"
                    fill="#FFC879" fill-opacity="0.5" fill-rule="nonzero" stroke="black" stroke-width="12.654401" />
            </g>
            <g id="item_8">
                <path
                    d="M-135.87357,-80.44827 L-238.05281,-203.06339 L-240.87816,-366.93304 L-197.36069,-485.8808 L-114.328445,-625.618 L-32.885136,-555.0338 L58.285713,-445 L118.14286,-305.33334 L108.69903,-151.08414 L7.1138,13.387181 z"
                    fill="#FFC879" fill-opacity="0.5" fill-rule="nonzero" stroke="black" stroke-width="12.654401" />
            </g>
            <g id="item_9">
                <path
                    d="M-175.38889,-72.47953 L-304,-151 L-407,-193 L-510,-208 L-673,-192 L-790,-169 L-990,-124 L-1029,-292 L-760,-353 L-531,-404 L-413,-430 L-288,-510 L-252,-700 L-252,-862 L-274,-1015 L-533,-1157 L-762,-1207 L-1031,-1267 L-993,-1435 L-793,-1391 L-675,-1368 L-512,-1353 L-409,-1368 L-307,-1411 L-180.41176,-1488.2854 L6.421687,-1568.9188 L319,-1499 L270,-1290 L248,-1143 L241,-922 L242,-782 L242,-642 L246,-494 L257,-358 L322,-65 L15.847507,8.041056 z"
                    fill="#FFC879" fill-opacity="0.5" fill-rule="nonzero" stroke="black" stroke-width="12.654401" />
            </g>
        </defs>
        <use transform="translate(1135.0657 71.46515), rotate(-180)" xlink:href="#item_2">
            <title>item, id: 2, transf: [r: -180.000°, t: (1135.066, 71.465)]</title>
        </use>
        <use transform="translate(1134.757 767.3865), rotate(-180)" xlink:href="#item_2">
            <title>item, id: 2, transf: [r: -180.000°, t: (1134.757, 767.386)]</title>
        </use>
        <use transform="translate(806.6864 1992.9814), rotate(0)" xlink:href="#item_2">
            <title>item, id: 2, transf: [r: 0.000°, t: (806.686, 1992.981)]</title>
        </use>
        <use transform="translate(806.9656 2646.1987), rotate(0)" xlink:href="#item_2">
            <title>item, id: 2, transf: [r: 0.000°, t: (806.966, 2646.199)]</title>
        </use>
        <use transform="translate(806.6786 3299.8306), rotate(0)" xlink:href="#item_2">
            <title>item, id: 2, transf: [r: 0.000°, t: (806.679, 3299.831)]</title>
        </use>
        <use transform="translate(806.68286 3954.0754), rotate(0)" xlink:href="#item_2">
            <title>item, id: 2, transf: [r: 0.000°, t: (806.683, 3954.075)]</title>
        </use>
        <use transform="translate(322.11215 3900.5215), rotate(-180)" xlink:href="#item_9">
            <title>item, id: 9, transf: [r: -180.000°, t: (322.112, 3900.521)]</title>
        </use>
        <use transform="translate(1826.7411 5743.791), rotate(0)" xlink:href="#item_9">
            <title>item, id: 9, transf: [r: 0.000°, t: (1826.741, 5743.791)]</title>
        </use>
        <use transform="translate(2518.0757 1569.3572), rotate(0)" xlink:href="#item_9">
            <title>item, id: 9, transf: [r: 0.000°, t: (2518.076, 1569.357)]</title>
        </use>
        <use transform="translate(3661.648 1712.5743), rotate(-180)" xlink:href="#item_0">
            <title>item, id: 0, transf: [r: -180.000°, t: (3661.648, 1712.574)]</title>
        </use>
        <use transform="translate(1942.9329 3384.0652), rotate(0)" xlink:href="#item_0">
            <title>item, id: 0, transf: [r: 0.000°, t: (1942.933, 3384.065)]</title>
        </use>
        <use transform="translate(3862.3494 3831.8376), rotate(-180)" xlink:href="#item_0">
            <title>item, id: 0, transf: [r: -180.000°, t: (3862.349, 3831.838)]</title>
        </use>
        <use transform="translate(2567.1438 4808.784), rotate(-180)" xlink:href="#item_4">
            <title>item, id: 4, transf: [r: -180.000°, t: (2567.144, 4808.784)]</title>
        </use>
        <use transform="translate(3590.19 1024.6279), rotate(0)" xlink:href="#item_4">
            <title>item, id: 4, transf: [r: 0.000°, t: (3590.190, 1024.628)]</title>
        </use>
        <use transform="translate(3364.9646 5518.181), rotate(0)" xlink:href="#item_4">
            <title>item, id: 4, transf: [r: 0.000°, t: (3364.965, 5518.181)]</title>
        </use>
        <use transform="translate(3743.1804 3124.4578), rotate(0)" xlink:href="#item_4">
            <title>item, id: 4, transf: [r: 0.000°, t: (3743.180, 3124.458)]</title>
        </use>
        <use transform="translate(3884.1455 2004.0948), rotate(0)" xlink:href="#item_4">
            <title>item, id: 4, transf: [r: 0.000°, t: (3884.146, 2004.095)]</title>
        </use>
        <use transform="translate(4034.628 4112.7), rotate(0)" xlink:href="#item_4">
            <title>item, id: 4, transf: [r: 0.000°, t: (4034.628, 4112.700)]</title>
        </use>
        <use transform="translate(5008.07 5373.0977), rotate(-180)" xlink:href="#item_5">
            <title>item, id: 5, transf: [r: -180.000°, t: (5008.070, 5373.098)]</title>
        </use>
        <use transform="translate(5228.173 1036.8309), rotate(-180)" xlink:href="#item_5">
            <title>item, id: 5, transf: [r: -180.000°, t: (5228.173, 1036.831)]</title>
        </use>
        <use transform="translate(5387.462 2928.0996), rotate(-180)" xlink:href="#item_5">
            <title>item, id: 5, transf: [r: -180.000°, t: (5387.462, 2928.100)]</title>
        </use>
        <use transform="translate(4447.8896 3330.6816), rotate(0)" xlink:href="#item_6">
            <title>item, id: 6, transf: [r: 0.000°, t: (4447.890, 3330.682)]</title>
        </use>
        <use transform="translate(4362.4473 1462.0602), rotate(0)" xlink:href="#item_6">
            <title>item, id: 6, transf: [r: 0.000°, t: (4362.447, 1462.060)]</title>
        </use>
        <use transform="translate(6289.253 620.7114), rotate(-180)" xlink:href="#item_6">
            <title>item, id: 6, transf: [r: -180.000°, t: (6289.253, 620.711)]</title>
        </use>
        <use transform="translate(5135.2886 5425.494), rotate(-180)" xlink:href="#item_3">
            <title>item, id: 3, transf: [r: -180.000°, t: (5135.289, 5425.494)]</title>
        </use>
        <use transform="translate(5766.748 3895.6086), rotate(-180)" xlink:href="#item_3">
            <title>item, id: 3, transf: [r: -180.000°, t: (5766.748, 3895.609)]</title>
        </use>
        <use transform="translate(5926.327 4092.7988), rotate(-180)" xlink:href="#item_3">
            <title>item, id: 3, transf: [r: -180.000°, t: (5926.327, 4092.799)]</title>
        </use>
        <use transform="translate(5008.1206 4472.03), rotate(0)" xlink:href="#item_3">
            <title>item, id: 3, transf: [r: 0.000°, t: (5008.121, 4472.030)]</title>
        </use>
        <use transform="translate(5008.143 4717.055), rotate(0)" xlink:href="#item_3">
            <title>item, id: 3, transf: [r: 0.000°, t: (5008.143, 4717.055)]</title>
        </use>
        <use transform="translate(6359.7227 4776.7417), rotate(-180)" xlink:href="#item_3">
            <title>item, id: 3, transf: [r: -180.000°, t: (6359.723, 4776.742)]</title>
        </use>
        <use transform="translate(5966.2007 5649.983), rotate(0)" xlink:href="#item_7">
            <title>item, id: 7, transf: [r: 0.000°, t: (5966.201, 5649.983)]</title>
        </use>
        <use transform="translate(5549.933 1005.437), rotate(-180)" xlink:href="#item_7">
            <title>item, id: 7, transf: [r: -180.000°, t: (5549.933, 1005.437)]</title>
        </use>
        <use transform="translate(6149.683 4251.205), rotate(0)" xlink:href="#item_7">
            <title>item, id: 7, transf: [r: 0.000°, t: (6149.683, 4251.205)]</title>
        </use>
        <use transform="translate(5516.7666 1694.824), rotate(-180)" xlink:href="#item_7">
            <title>item, id: 7, transf: [r: -180.000°, t: (5516.767, 1694.824)]</title>
        </use>
        <use transform="translate(5576.5796 2373.333), rotate(-180)" xlink:href="#item_7">
            <title>item, id: 7, transf: [r: -180.000°, t: (5576.580, 2373.333)]</title>
        </use>
        <use transform="translate(6463.4116 3630.3213), rotate(0)" xlink:href="#item_7">
            <title>item, id: 7, transf: [r: 0.000°, t: (6463.412, 3630.321)]</title>
        </use>
        <use transform="translate(5905.583 2057.1245), rotate(0)" xlink:href="#item_1">
            <title>item, id: 1, transf: [r: 0.000°, t: (5905.583, 2057.125)]</title>
        </use>
        <use transform="translate(6842.788 4836.6104), rotate(-180)" xlink:href="#item_1">
            <title>item, id: 1, transf: [r: -180.000°, t: (6842.788, 4836.610)]</title>
        </use>
        <use transform="translate(6729.672 2189.4597), rotate(-180)" xlink:href="#item_1">
            <title>item, id: 1, transf: [r: -180.000°, t: (6729.672, 2189.460)]</title>
        </use>
        <use transform="translate(6291.538 550.44305), rotate(0)" xlink:href="#item_1">
            <title>item, id: 1, transf: [r: 0.000°, t: (6291.538, 550.443)]</title>
        </use>
        <use transform="translate(7178.5386 361.47064), rotate(-180)" xlink:href="#item_1">
            <title>item, id: 1, transf: [r: -180.000°, t: (7178.539, 361.471)]</title>
        </use>
        <use transform="translate(6322.6284 1368.5464), rotate(0)" xlink:href="#item_1">
            <title>item, id: 1, transf: [r: 0.000°, t: (6322.628, 1368.546)]</title>
        </use>
        <use transform="translate(1852.3574 1074.9724), rotate(0)" xlink:href="#item_8">
            <title>item, id: 8, transf: [r: 0.000°, t: (1852.357, 1074.972)]</title>
        </use>
        <use transform="translate(3002.4194 1219.5924), rotate(0)" xlink:href="#item_8">
            <title>item, id: 8, transf: [r: 0.000°, t: (3002.419, 1219.592)]</title>
        </use>
        <use transform="translate(3361.0847 1238.2817), rotate(0)" xlink:href="#item_8">
            <title>item, id: 8, transf: [r: 0.000°, t: (3361.085, 1238.282)]</title>
        </use>
        <use transform="translate(6329.1357 3554.09), rotate(-180)" xlink:href="#item_8">
            <title>item, id: 8, transf: [r: -180.000°, t: (6329.136, 3554.090)]</title>
        </use>
        <use transform="translate(6451.229 4237.6743), rotate(-180)" xlink:href="#item_8">
            <title>item, id: 8, transf: [r: -180.000°, t: (6451.229, 4237.674)]</title>
        </use>
        <use transform="translate(6600.2026 2828.9714), rotate(-180)" xlink:href="#item_8">
            <title>item, id: 8, transf: [r: -180.000°, t: (6600.203, 2828.971)]</title>
        </use>
    </g>
    <g id="quality_zones" />
    <g id="optionals">
        <g id="highlight_cd_shapes" />
        <g id="surrogates">
            <defs />
        </g>
    </g>
    <text font-family="monospace" font-size="143.8" font-weight="500" x="0" y="-71.9">
        height: 5752.000 | width: 7209.701 | density: 61.357% |
    </text>
</svg>