<svg viewBox="-170.9409 -143.79987 7179.5244 6039.5996" xmlns="http://www.w3.org/2000/svg" xmlns:xlink="http://www.w3.org/1999/xlink">
<g id="bin_0">
<path d="M0,0 L6837.6426,0 L6837.6426,5752 L0,5752 z" fill="#CC824A" stroke="black" stroke-width="24.1584"/>
<title>bin, id: 0, bbox: [x_min: 0.000, y_min: 0.000, x_max: 6837.643, y_max: 5752.000]</title>
</g>
<g id="items">
<defs>
<g id="item_0">
<path d="M0,0 L-5,-321 L1,-642 L151,-660 L552.1238,-775.1374 L858,-837 L988,-682 L1075,-620 L1211,-553 L1319,-527 L1481,-526 L1597,-540 L1737,-564 L1719,-440 L1708,-317 L1718,-194 L1736,-70 L1596,-95 L1480,-109 L1318,-109 L1210,-83 L1074,-17 L986,45 L856,199.00003 L549.1081,135.20786 L149,19 z" fill="#FFC879" fill-rule="nonzero" opacity="0.9" stroke="black" stroke-width="12.0792"/>
</g>
<g id="item_1">
<path d="M0,0 L8,-148 L26.96225,-299.69812 L68.44348,-462.4321 L179,-449 L288,-446 L401,-463 L763.7356,-546.898 L805,-350 L887,-196 L755,-176 L655,-155 L523,-121 L272,-52 L117.45331,-11.877289 z" fill="#FFC879" fill-rule="nonzero" opacity="0.9" stroke="black" stroke-width="12.0792"/>
</g>
<g id="item_2">
<path d="M-159,-185 L-474,-262 L-694.8462,-307.57144 L-806.64514,-359.47812 L-532,-384 L-408,-400 L-215,-443 L-77,-501 L130,-620 L264,-589 L477.87183,-543.8493 L652.5122,-485.0418 L766,-431 L893,-362 L1115,-258 L1134.7424,-7.2708282 L731.9796,55.334778 L524,70 L357.5263,70 L181,44 L0.9528198,4.1818695 z" fill="#FFC879" fill-rule="nonzero" opacity="0.9" stroke="black" stroke-width="12.0792"/>
</g>
<g id="item_3">
<path d="M0,0 L8,-172 L309,-166 L484,-165 L616,-167 L718,-172 L876,-194 L1031,-248 L1351.455,-111.0968 L1209,-57 L1048.9706,-6.8212967 L909,16 L732.5139,30.23275 L511,26 L213,14 z" fill="#FFC879" fill-rule="nonzero" opacity="0.9" stroke="black" stroke-width="12.0792"/>
</g>
<g id="item_4">
<path d="M0,0 L33.96,-142.91498 L77,-268 L89,-388 L-826,-439 L-824,-598 L39,-607 L169,-650 L246.49356,-940.6008 L371,-924 L354,-726 L348,-610 L350,-412 L360,-264 L382,-94 L488.69122,232.1128 L352,54 L217,0 z" fill="#FFC879" fill-rule="nonzero" opacity="0.9" stroke="black" stroke-width="12.0792"/>
</g>
<g id="item_5">
<path d="M0,-7.222229 L129.79999,-36.06665 L306.8846,22.961548 L543.3279,132.36066 L737,238 L855,290 L959,313 L1071,306 L1275,255 L1250,499 L1275,745 L1071,694 L959,687 L855,710 L737,762 L543.3278,867.6394 L306.8846,977.03845 L129.79999,1036.0667 L0,1007.2222 z" fill="#FFC879" fill-rule="nonzero" opacity="0.9" stroke="black" stroke-width="12.0792"/>
</g>
<g id="item_6">
<path d="M0,0 L-4,-123 L-8,-291 L-17,-454 L-40,-620 L119,-619 L246,-538 L352,-501 L492,-458 L686.16406,-405.3878 L913,-302 L1061,-224 L1037,2 L1061,224 L913,302 L686.16406,405.3878 L492,458 L352,501 L246,538 L119,619 L-40,620 L-17,454 L-8,291 L-4,123 z" fill="#FFC879" fill-rule="nonzero" opacity="0.9" stroke="black" stroke-width="12.0792"/>
</g>
<g id="item_7">
<path d="M3.998413,5.194275 L-178,-200 L-270,-306 L-412,-374 L-958,-383 L-954,-543 L-366,-560 L-269,-659 L-90,-708 L19.30841,-493.19626 L124.78949,-237.30698 L189,-42 z" fill="#FFC879" fill-rule="nonzero" opacity="0.9" stroke="black" stroke-width="12.0792"/>
</g>
<g id="item_8">
<path d="M-135.87357,-80.44827 L-238.0528,-203.06339 L-240.87814,-366.93304 L-197.36069,-485.8808 L-114.328445,-625.618 L-32.885136,-555.0338 L58.285713,-445 L118.14286,-305.33334 L108.69903,-151.08414 L7.1138,13.3871765 z" fill="#FFC879" fill-rule="nonzero" opacity="0.9" stroke="black" stroke-width="12.0792"/>
</g>
<g id="item_9">
<path d="M-175.38889,-72.47955 L-304,-151 L-407,-193 L-510,-208 L-673,-192 L-790,-169 L-990,-124 L-1029,-292 L-675.60785,-372.13727 L-413,-430 L-288,-510 L-252,-700 L-252,-862 L-274,-1015 L-533,-1157 L-1031.273,-1265.7932 L-993,-1435 L-675,-1368 L-512,-1353 L-409,-1368 L-307,-1411 L-180.41176,-1488.2854 L6.421692,-1568.9188 L319,-1499 L270,-1290 L247.99998,-1143 L240.99998,-922 L245.99998,-494 L257,-358 L322,-65 L15.847504,8.041077 z" fill="#FFC879" fill-rule="nonzero" opacity="0.9" stroke="black" stroke-width="12.0792"/>
</g>
</defs>
<use transform="translate(807.8251 620.6743), rotate(0)" xlink:href="#item_2">
<title>item, id: 2, transf: [r: 0.000°, t: (807.825, 620.674)]</title>
</use>
<use transform="translate(1136.2609 702.3402), rotate(-180)" xlink:href="#item_2">
<title>item, id: 2, transf: [r: -180.000°, t: (1136.261, 702.340)]</title>
</use>
<use transform="translate(1136.2958 1357.512), rotate(-180)" xlink:href="#item_2">
<title>item, id: 2, transf: [r: -180.000°, t: (1136.296, 1357.512)]</title>
</use>
<use transform="translate(1135.9723 2015.0544), rotate(-180)" xlink:href="#item_2">
<title>item, id: 2, transf: [r: -180.000°, t: (1135.972, 2015.054)]</title>
</use>
<use transform="translate(807.87683 3239.5813), rotate(0)" xlink:href="#item_2">
<title>item, id: 2, transf: [r: 0.000°, t: (807.877, 3239.581)]</title>
</use>
<use transform="translate(1135.9303 3322.1729), rotate(-180)" xlink:href="#item_2">
<title>item, id: 2, transf: [r: -180.000°, t: (1135.930, 3322.173)]</title>
</use>
<use transform="translate(323.30267 3752.3384), rotate(-180)" xlink:href="#item_9">
<title>item, id: 9, transf: [r: -180.000°, t: (323.303, 3752.338)]</title>
</use>
<use transform="translate(1607.4381 5713.806), rotate(0)" xlink:href="#item_9">
<title>item, id: 9, transf: [r: 0.000°, t: (1607.438, 5713.806)]</title>
</use>
<use transform="translate(2352.0522 2150.3152), rotate(0)" xlink:href="#item_9">
<title>item, id: 9, transf: [r: 0.000°, t: (2352.052, 2150.315)]</title>
</use>
<use transform="translate(3460.8818 2324.163), rotate(-180)" xlink:href="#item_0">
<title>item, id: 0, transf: [r: -180.000°, t: (3460.882, 2324.163)]</title>
</use>
<use transform="translate(3543.3079 3623.8823), rotate(-180)" xlink:href="#item_0">
<title>item, id: 0, transf: [r: -180.000°, t: (3543.308, 3623.882)]</title>
</use>
<use transform="translate(3590.6917 4652.9683), rotate(-180)" xlink:href="#item_0">
<title>item, id: 0, transf: [r: -180.000°, t: (3590.692, 4652.968)]</title>
</use>
<use transform="translate(2759.9214 941.75323), rotate(0)" xlink:href="#item_4">
<title>item, id: 4, transf: [r: 0.000°, t: (2759.921, 941.753)]</title>
</use>
<use transform="translate(3094.408 1202.5026), rotate(-180)" xlink:href="#item_4">
<title>item, id: 4, transf: [r: -180.000°, t: (3094.408, 1202.503)]</title>
</use>
<use transform="translate(3545.1816 3739.4937), rotate(0)" xlink:href="#item_4">
<title>item, id: 4, transf: [r: 0.000°, t: (3545.182, 3739.494)]</title>
</use>
<use transform="translate(3704.2405 2619.8823), rotate(0)" xlink:href="#item_4">
<title>item, id: 4, transf: [r: 0.000°, t: (3704.240, 2619.882)]</title>
</use>
<use transform="translate(3935.7864 942.0199), rotate(0)" xlink:href="#item_4">
<title>item, id: 4, transf: [r: 0.000°, t: (3935.786, 942.020)]</title>
</use>
<use transform="translate(4195.7085 2049.432), rotate(0)" xlink:href="#item_4">
<title>item, id: 4, transf: [r: 0.000°, t: (4195.708, 2049.432)]</title>
</use>
<use transform="translate(4823.044 4711.546), rotate(-180)" xlink:href="#item_5">
<title>item, id: 5, transf: [r: -180.000°, t: (4823.044, 4711.546)]</title>
</use>
<use transform="translate(3595.9026 4452.352), rotate(0)" xlink:href="#item_5">
<title>item, id: 5, transf: [r: 0.000°, t: (3595.903, 4452.352)]</title>
</use>
<use transform="translate(5189.983 3542.0596), rotate(-180)" xlink:href="#item_5">
<title>item, id: 5, transf: [r: -180.000°, t: (5189.983, 3542.060)]</title>
</use>
<use transform="translate(5378.6563 620.13617), rotate(-180)" xlink:href="#item_6">
<title>item, id: 6, transf: [r: -180.000°, t: (5378.656, 620.136)]</title>
</use>
<use transform="translate(5656.0225 1784.1411), rotate(-180)" xlink:href="#item_6">
<title>item, id: 6, transf: [r: -180.000°, t: (5656.022, 1784.141)]</title>
</use>
<use transform="translate(5884.1396 3951.3562), rotate(-180)" xlink:href="#item_6">
<title>item, id: 6, transf: [r: -180.000°, t: (5884.140, 3951.356)]</title>
</use>
<use transform="translate(2826.0464 30.279213), rotate(-180)" xlink:href="#item_3">
<title>item, id: 3, transf: [r: -180.000°, t: (2826.046, 30.279)]</title>
</use>
<use transform="translate(1927.4679 5692.872), rotate(0)" xlink:href="#item_3">
<title>item, id: 3, transf: [r: 0.000°, t: (1927.468, 5692.872)]</title>
</use>
<use transform="translate(1273.8788 3482.2612), rotate(0)" xlink:href="#item_3">
<title>item, id: 3, transf: [r: 0.000°, t: (1273.879, 3482.261)]</title>
</use>
<use transform="translate(3275.5713 5657.4688), rotate(0)" xlink:href="#item_3">
<title>item, id: 3, transf: [r: 0.000°, t: (3275.571, 5657.469)]</title>
</use>
<use transform="translate(5489.82 5225.8003), rotate(-180)" xlink:href="#item_3">
<title>item, id: 3, transf: [r: -180.000°, t: (5489.820, 5225.800)]</title>
</use>
<use transform="translate(5798.4517 5503.707), rotate(-180)" xlink:href="#item_3">
<title>item, id: 3, transf: [r: -180.000°, t: (5798.452, 5503.707)]</title>
</use>
<use transform="translate(3307.1257 606.8709), rotate(-180)" xlink:href="#item_7">
<title>item, id: 7, transf: [r: -180.000°, t: (3307.126, 606.871)]</title>
</use>
<use transform="translate(5012.1133 4276.746), rotate(-180)" xlink:href="#item_7">
<title>item, id: 7, transf: [r: -180.000°, t: (5012.113, 4276.746)]</title>
</use>
<use transform="translate(5584.732 126.44061), rotate(-180)" xlink:href="#item_7">
<title>item, id: 7, transf: [r: -180.000°, t: (5584.732, 126.441)]</title>
</use>
<use transform="translate(5826.6836 5534.6294), rotate(0)" xlink:href="#item_7">
<title>item, id: 7, transf: [r: 0.000°, t: (5826.684, 5534.629)]</title>
</use>
<use transform="translate(5313.855 2294.314), rotate(-180)" xlink:href="#item_7">
<title>item, id: 7, transf: [r: -180.000°, t: (5313.855, 2294.314)]</title>
</use>
<use transform="translate(6349.9253 1389.2583), rotate(0)" xlink:href="#item_7">
<title>item, id: 7, transf: [r: 0.000°, t: (6349.925, 1389.258)]</title>
</use>
<use transform="translate(6077.361 2847.9133), rotate(-180)" xlink:href="#item_1">
<title>item, id: 1, transf: [r: -180.000°, t: (6077.361, 2847.913)]</title>
</use>
<use transform="translate(5660.7695 1929.3232), rotate(0)" xlink:href="#item_1">
<title>item, id: 1, transf: [r: 0.000°, t: (5660.770, 1929.323)]</title>
</use>
<use transform="translate(6547.7363 1739.6282), rotate(-180)" xlink:href="#item_1">
<title>item, id: 1, transf: [r: -180.000°, t: (6547.736, 1739.628)]</title>
</use>
<use transform="translate(5889.4907 3772.0696), rotate(0)" xlink:href="#item_1">
<title>item, id: 1, transf: [r: 0.000°, t: (5889.491, 3772.070)]</title>
</use>
<use transform="translate(6836.463 2126.7954), rotate(-180)" xlink:href="#item_1">
<title>item, id: 1, transf: [r: -180.000°, t: (6836.463, 2126.795)]</title>
</use>
<use transform="translate(6776.7603 3582.2185), rotate(-180)" xlink:href="#item_1">
<title>item, id: 1, transf: [r: -180.000°, t: (6776.760, 3582.219)]</title>
</use>
<use transform="translate(4182.6846 2051.938), rotate(-180)" xlink:href="#item_8">
<title>item, id: 8, transf: [r: -180.000°, t: (4182.685, 2051.938)]</title>
</use>
<use transform="translate(4036.709 3272.3284), rotate(-180)" xlink:href="#item_8">
<title>item, id: 8, transf: [r: -180.000°, t: (4036.709, 3272.328)]</title>
</use>
<use transform="translate(6159.5615 4751.9604), rotate(0)" xlink:href="#item_8">
<title>item, id: 8, transf: [r: 0.000°, t: (6159.562, 4751.960)]</title>
</use>
<use transform="translate(5992.449 4804.423), rotate(-180)" xlink:href="#item_8">
<title>item, id: 8, transf: [r: -180.000°, t: (5992.449, 4804.423)]</title>
</use>
<use transform="translate(6560.382 13.674225), rotate(-180)" xlink:href="#item_8">
<title>item, id: 8, transf: [r: -180.000°, t: (6560.382, 13.674)]</title>
</use>
<use transform="translate(6526.0645 684.0587), rotate(-180)" xlink:href="#item_8">
<title>item, id: 8, transf: [r: -180.000°, t: (6526.064, 684.059)]</title>
</use>
</g>
<g id="quality_zones"/>
<g id="optionals"/>
</svg>