<svg viewBox="-315.3431 -122.499886 13165.298 5145" xmlns="http://www.w3.org/2000/svg">
<g>
<path d="M-1.8839111,0 L12536.496,0 L12536.496,4900 L-1.8839111,4900 z" fill="#CC824A" stroke="black" stroke-width="20.580002"/>
</g>
<g>
<g>
<path d="M3000.295,2180.4814 L2034.295,2124.4814 L1017.295,2266.4812 L815.29504,2028.4812 L266.29504,2049.4812 L0.29516602,1499.4811 L181.29517,1366.4811 L181.29517,906.4811 L0.29516602,773.4811 L266.2953,223.48114 L815.2953,244.4812 L1017.29535,6.481201 L2034.2953,148.48138 L3000.2954,92.48157 z" fill="#FFC879" fill-rule="nonzero" opacity="0.9" stroke="black" stroke-width="10.290001"/>
</g>
<g>
<path d="M0.7642822,2218.2068 L966.7643,2274.2068 L1983.7643,2132.2068 L2185.7642,2370.2068 L2734.7642,2349.2068 L3000.7642,2899.2068 L2819.7642,3032.2068 L2819.7642,3492.2068 L3000.7642,3625.2068 L2734.7642,4175.207 L2185.7642,4154.207 L1983.7643,4392.207 L966.7643,4250.207 L0.7642822,4306.207 z" fill="#FFC879" fill-rule="nonzero" opacity="0.9" stroke="black" stroke-width="10.290001"/>
</g>
<g>
<path d="M0.2796631,4393.7603 L3034.2798,4393.7603 L3034.2798,4654.7603 L0.2796631,4654.7603 z" fill="#FFC879" fill-rule="nonzero" opacity="0.9" stroke="black" stroke-width="10.290001"/>
</g>
<g>
<path d="M2780.377,2181.245 L5814.377,2181.245 L5814.377,2442.245 L2780.377,2442.245 z" fill="#FFC879" fill-rule="nonzero" opacity="0.9" stroke="black" stroke-width="10.290001"/>
</g>
<g>
<path d="M3056.2954,73.061035 L4066.2954,143.06104 L4891.2954,0.061035156 L5186.2954,288.06104 L5573.2954,241.06104 L5676.2954,926.06104 L5594.2954,1366.061 L3000.2954,1366.061 z" fill="#FFC879" fill-rule="nonzero" opacity="0.9" stroke="black" stroke-width="10.290001"/>
</g>
<g>
<path d="M5561.664,4072.132 L4551.664,4002.132 L3726.664,4145.132 L3431.664,3857.1318 L3044.664,3904.1318 L2941.664,3219.1318 L3023.664,2779.1318 L5617.664,2779.132 z" fill="#FFC879" fill-rule="nonzero" opacity="0.9" stroke="black" stroke-width="10.290001"/>
</g>
<g>
<path d="M8239.529,2179.1414 L5740.529,2179.141 L5534.5293,1792.141 L5617.5293,1245.141 L6091.5293,1212.1411 L6319.5293,1027.1411 L7178.5293,1120.1414 L8239.529,1054.1414 z" fill="#FFC879" fill-rule="nonzero" opacity="0.9" stroke="black" stroke-width="10.290001"/>
</g>
<g>
<path d="M8313.21,3391.4795 L5814.2095,3391.4792 L5608.21,3004.4792 L5691.21,2457.4792 L6165.21,2424.4792 L6393.21,2239.4792 L7252.21,2332.4795 L8313.21,2266.4795 z" fill="#FFC879" fill-rule="nonzero" opacity="0.9" stroke="black" stroke-width="10.290001"/>
</g>
<g>
<path d="M8240.278,175.08429 L10001.278,2.0842896 L10423.278,652.0843 L10423.278,1012.0843 L10001.278,1662.0842 L8240.278,1489.0842 z" fill="#FFC879" fill-rule="nonzero" opacity="0.9" stroke="black" stroke-width="10.290001"/>
</g>
<g>
<path d="M10173.037,4726.594 L8412.037,4899.594 L7990.037,4249.594 L7990.037,3889.594 L8412.037,3239.5942 L10173.037,3412.5945 z" fill="#FFC879" fill-rule="nonzero" opacity="0.9" stroke="black" stroke-width="10.290001"/>
</g>
<g>
<path d="M10496.376,3027.081 L8735.376,3200.0806 L8313.376,2550.0806 L8313.376,2190.0806 L8735.376,1540.0807 L10496.376,1713.081 z" fill="#FFC879" fill-rule="nonzero" opacity="0.9" stroke="black" stroke-width="10.290001"/>
</g>
<g>
<path d="M12534.332,1963.2617 L10773.332,2136.2615 L10351.332,1486.2615 L10351.332,1126.2615 L10773.332,476.26147 L12534.332,649.2618 z" fill="#FFC879" fill-rule="nonzero" opacity="0.9" stroke="black" stroke-width="10.290001"/>
</g>
<g>
<path d="M2644.5718,4172.762 L3440.5718,4291.762 L4236.572,4172.762 L4310.572,4297.762 L3440.5718,4477.762 L2570.5718,4297.762 z" fill="#FFC879" fill-rule="nonzero" opacity="0.9" stroke="black" stroke-width="10.290001"/>
</g>
<g>
<path d="M4666.477,1674.7935 L3870.4773,1555.7932 L3074.4773,1674.7932 L3000.4773,1549.7931 L3870.4773,1369.7932 L4740.477,1549.7935 z" fill="#FFC879" fill-rule="nonzero" opacity="0.9" stroke="black" stroke-width="10.290001"/>
</g>
<g>
<path d="M4122.4214,4899.3823 L3326.4216,4780.3823 L2530.4216,4899.382 L2456.4216,4774.382 L3326.4216,4594.3823 L4196.4214,4774.3823 z" fill="#FFC879" fill-rule="nonzero" opacity="0.9" stroke="black" stroke-width="10.290001"/>
</g>
<g>
<path d="M4534.1357,2747.709 L3738.1357,2628.7087 L2942.1357,2747.7087 L2868.1357,2622.7087 L3738.1357,2442.7087 L4608.1357,2622.709 z" fill="#FFC879" fill-rule="nonzero" opacity="0.9" stroke="black" stroke-width="10.290001"/>
</g>
<g>
<path d="M3000.8848,1667.6138 L3411.8848,1732.6138 L3800.8848,1667.6138 L4189.885,1732.6138 L4600.885,1667.6138 L4500.885,2035.6138 L3800.8848,1953.6138 L3100.8848,2035.6138 z" fill="#FFC879" fill-rule="nonzero" opacity="0.9" stroke="black" stroke-width="10.290001"/>
</g>
<g>
<path d="M3943.0151,4374.0806 L4354.015,4439.0806 L4743.015,4374.0806 L5132.015,4439.0806 L5543.015,4374.0806 L5443.015,4742.0806 L4743.015,4660.0806 L4043.0151,4742.0806 z" fill="#FFC879" fill-rule="nonzero" opacity="0.9" stroke="black" stroke-width="10.290001"/>
</g>
<g>
<path d="M5876.5337,4426.6436 L5465.5337,4361.6436 L5076.5337,4426.6436 L4687.5337,4361.6436 L4276.5337,4426.6436 L4376.5337,4058.6436 L5076.5337,4140.6436 L5776.5337,4058.6436 z" fill="#FFC879" fill-rule="nonzero" opacity="0.9" stroke="black" stroke-width="10.290001"/>
</g>
<g>
<path d="M5509.189,1.0974274 L5920.189,66.09743 L6309.189,1.0974274 L6698.189,66.09743 L7109.189,1.0974274 L7009.189,369.0974 L6309.189,287.0974 L5609.189,369.0974 z" fill="#FFC879" fill-rule="nonzero" opacity="0.9" stroke="black" stroke-width="10.290001"/>
</g>
<g>
<path d="M6613.811,1022.6693 L5677.811,1022.6692 L5677.811,363.6692 L6613.811,363.6693 z" fill="#FFC879" fill-rule="nonzero" opacity="0.9" stroke="black" stroke-width="10.290001"/>
</g>
<g>
<path d="M6527.3833,4050.7883 L5591.3833,4050.7883 L5591.3833,3391.7883 L6527.3833,3391.7883 z" fill="#FFC879" fill-rule="nonzero" opacity="0.9" stroke="black" stroke-width="10.290001"/>
</g>
<g>
<path d="M6813.3423,4711.6978 L5877.3423,4711.6978 L5877.3423,4052.6978 L6813.3423,4052.6978 z" fill="#FFC879" fill-rule="nonzero" opacity="0.9" stroke="black" stroke-width="10.290001"/>
</g>
<g>
<path d="M7550.243,1029.1527 L6614.243,1029.1526 L6614.243,370.1526 L7550.243,370.1527 z" fill="#FFC879" fill-rule="nonzero" opacity="0.9" stroke="black" stroke-width="10.290001"/>
</g>
</g>
<g/>
<g/>
<g/>
</svg>